<mxfile host="app.diagrams.net" agent="Mozilla/5.0 (Windows NT 10.0; Win64; x64) AppleWebKit/537.36 (KHTML, like Gecko) Chrome/131.0.0.0 Safari/537.36 Edg/131.0.0.0" version="25.0.0">
  <diagram name="第 1 页" id="zI-GEJcVa0QLz6d-LR4Y">
    <mxGraphModel dx="1300" dy="1012" grid="0" gridSize="10" guides="1" tooltips="1" connect="1" arrows="1" fold="1" page="0" pageScale="1" pageWidth="827" pageHeight="1169" math="0" shadow="0">
      <root>
        <mxCell id="0" />
        <mxCell id="1" parent="0" />
        <mxCell id="y7e35RRzxYH9MTJGS3jM-2" value="用例图(Use Case)" style="swimlane;whiteSpace=wrap;html=1;" vertex="1" parent="1">
          <mxGeometry x="662" y="243" width="516" height="472" as="geometry" />
        </mxCell>
        <mxCell id="y7e35RRzxYH9MTJGS3jM-10" value="" style="edgeStyle=orthogonalEdgeStyle;rounded=0;orthogonalLoop=1;jettySize=auto;html=1;" edge="1" parent="y7e35RRzxYH9MTJGS3jM-2" source="y7e35RRzxYH9MTJGS3jM-6" target="y7e35RRzxYH9MTJGS3jM-9">
          <mxGeometry relative="1" as="geometry" />
        </mxCell>
        <mxCell id="y7e35RRzxYH9MTJGS3jM-14" style="edgeStyle=orthogonalEdgeStyle;rounded=0;orthogonalLoop=1;jettySize=auto;html=1;entryX=0;entryY=0.5;entryDx=0;entryDy=0;" edge="1" parent="y7e35RRzxYH9MTJGS3jM-2" source="y7e35RRzxYH9MTJGS3jM-6" target="y7e35RRzxYH9MTJGS3jM-13">
          <mxGeometry relative="1" as="geometry" />
        </mxCell>
        <mxCell id="y7e35RRzxYH9MTJGS3jM-6" value="用户" style="html=1;whiteSpace=wrap;strokeColor=none;fillColor=#0079D6;labelPosition=center;verticalLabelPosition=middle;verticalAlign=top;align=center;fontSize=12;outlineConnect=0;spacingTop=-6;fontColor=#FFFFFF;sketch=0;shape=mxgraph.sitemap.user;" vertex="1" parent="y7e35RRzxYH9MTJGS3jM-2">
          <mxGeometry x="5" y="47" width="120" height="70" as="geometry" />
        </mxCell>
        <mxCell id="y7e35RRzxYH9MTJGS3jM-16" style="edgeStyle=orthogonalEdgeStyle;rounded=0;orthogonalLoop=1;jettySize=auto;html=1;entryX=0;entryY=0.5;entryDx=0;entryDy=0;" edge="1" parent="y7e35RRzxYH9MTJGS3jM-2" source="y7e35RRzxYH9MTJGS3jM-7" target="y7e35RRzxYH9MTJGS3jM-15">
          <mxGeometry relative="1" as="geometry" />
        </mxCell>
        <mxCell id="y7e35RRzxYH9MTJGS3jM-7" value="管理者" style="html=1;whiteSpace=wrap;strokeColor=none;fillColor=#0079D6;labelPosition=center;verticalLabelPosition=middle;verticalAlign=top;align=center;fontSize=12;outlineConnect=0;spacingTop=-6;fontColor=#FFFFFF;sketch=0;shape=mxgraph.sitemap.user;" vertex="1" parent="y7e35RRzxYH9MTJGS3jM-2">
          <mxGeometry x="5" y="191" width="120" height="70" as="geometry" />
        </mxCell>
        <mxCell id="y7e35RRzxYH9MTJGS3jM-21" style="edgeStyle=orthogonalEdgeStyle;rounded=0;orthogonalLoop=1;jettySize=auto;html=1;entryX=0;entryY=0.5;entryDx=0;entryDy=0;" edge="1" parent="y7e35RRzxYH9MTJGS3jM-2" source="y7e35RRzxYH9MTJGS3jM-8" target="y7e35RRzxYH9MTJGS3jM-17">
          <mxGeometry relative="1" as="geometry" />
        </mxCell>
        <mxCell id="y7e35RRzxYH9MTJGS3jM-22" style="edgeStyle=orthogonalEdgeStyle;rounded=0;orthogonalLoop=1;jettySize=auto;html=1;" edge="1" parent="y7e35RRzxYH9MTJGS3jM-2" source="y7e35RRzxYH9MTJGS3jM-8" target="y7e35RRzxYH9MTJGS3jM-18">
          <mxGeometry relative="1" as="geometry" />
        </mxCell>
        <mxCell id="y7e35RRzxYH9MTJGS3jM-23" style="edgeStyle=orthogonalEdgeStyle;rounded=0;orthogonalLoop=1;jettySize=auto;html=1;entryX=0;entryY=0.5;entryDx=0;entryDy=0;" edge="1" parent="y7e35RRzxYH9MTJGS3jM-2" source="y7e35RRzxYH9MTJGS3jM-8" target="y7e35RRzxYH9MTJGS3jM-19">
          <mxGeometry relative="1" as="geometry" />
        </mxCell>
        <mxCell id="y7e35RRzxYH9MTJGS3jM-24" style="edgeStyle=orthogonalEdgeStyle;rounded=0;orthogonalLoop=1;jettySize=auto;html=1;entryX=0;entryY=0.5;entryDx=0;entryDy=0;" edge="1" parent="y7e35RRzxYH9MTJGS3jM-2" source="y7e35RRzxYH9MTJGS3jM-8" target="y7e35RRzxYH9MTJGS3jM-20">
          <mxGeometry relative="1" as="geometry" />
        </mxCell>
        <mxCell id="y7e35RRzxYH9MTJGS3jM-8" value="运营者" style="html=1;whiteSpace=wrap;strokeColor=none;fillColor=#0079D6;labelPosition=center;verticalLabelPosition=middle;verticalAlign=top;align=center;fontSize=12;outlineConnect=0;spacingTop=-6;fontColor=#FFFFFF;sketch=0;shape=mxgraph.sitemap.user;fontStyle=1" vertex="1" parent="y7e35RRzxYH9MTJGS3jM-2">
          <mxGeometry x="5" y="334" width="120" height="70" as="geometry" />
        </mxCell>
        <mxCell id="y7e35RRzxYH9MTJGS3jM-9" value="浏览商品" style="whiteSpace=wrap;html=1;verticalAlign=top;fillColor=#0079D6;strokeColor=none;fontColor=#FFFFFF;spacingTop=-6;sketch=0;" vertex="1" parent="y7e35RRzxYH9MTJGS3jM-2">
          <mxGeometry x="209" y="71" width="128" height="22" as="geometry" />
        </mxCell>
        <mxCell id="y7e35RRzxYH9MTJGS3jM-13" value="购买物品" style="whiteSpace=wrap;html=1;verticalAlign=top;fillColor=#0079D6;strokeColor=none;fontColor=#FFFFFF;spacingTop=-6;sketch=0;" vertex="1" parent="y7e35RRzxYH9MTJGS3jM-2">
          <mxGeometry x="209" y="104" width="128" height="22" as="geometry" />
        </mxCell>
        <mxCell id="y7e35RRzxYH9MTJGS3jM-15" value="查看报表" style="whiteSpace=wrap;html=1;verticalAlign=top;fillColor=#0079D6;strokeColor=none;fontColor=#FFFFFF;spacingTop=-6;sketch=0;" vertex="1" parent="y7e35RRzxYH9MTJGS3jM-2">
          <mxGeometry x="214" y="215" width="128" height="22" as="geometry" />
        </mxCell>
        <mxCell id="y7e35RRzxYH9MTJGS3jM-17" value="进货" style="whiteSpace=wrap;html=1;verticalAlign=top;fillColor=#0079D6;strokeColor=none;fontColor=#FFFFFF;spacingTop=-6;sketch=0;" vertex="1" parent="y7e35RRzxYH9MTJGS3jM-2">
          <mxGeometry x="214" y="288" width="128" height="22" as="geometry" />
        </mxCell>
        <mxCell id="y7e35RRzxYH9MTJGS3jM-18" value="发货" style="whiteSpace=wrap;html=1;verticalAlign=top;fillColor=#0079D6;strokeColor=none;fontColor=#FFFFFF;spacingTop=-6;sketch=0;" vertex="1" parent="y7e35RRzxYH9MTJGS3jM-2">
          <mxGeometry x="214" y="321" width="128" height="22" as="geometry" />
        </mxCell>
        <mxCell id="y7e35RRzxYH9MTJGS3jM-19" value="维护商品" style="whiteSpace=wrap;html=1;verticalAlign=top;fillColor=#0079D6;strokeColor=none;fontColor=#FFFFFF;spacingTop=-6;sketch=0;" vertex="1" parent="y7e35RRzxYH9MTJGS3jM-2">
          <mxGeometry x="214" y="360" width="128" height="22" as="geometry" />
        </mxCell>
        <mxCell id="y7e35RRzxYH9MTJGS3jM-20" value="管理订单" style="whiteSpace=wrap;html=1;verticalAlign=top;fillColor=#0079D6;strokeColor=none;fontColor=#FFFFFF;spacingTop=-6;sketch=0;" vertex="1" parent="y7e35RRzxYH9MTJGS3jM-2">
          <mxGeometry x="214" y="393" width="128" height="22" as="geometry" />
        </mxCell>
      </root>
    </mxGraphModel>
  </diagram>
</mxfile>
